<svg version="1.1" xmlns="http://www.w3.org/2000/svg" width="300" height="300">
<path d="M0 0 C2.46899414 -0.31494141 2.46899414 -0.31494141 5.72265625 -0.2265625 C6.98480957 -0.19723633 8.24696289 -0.16791016 9.54736328 -0.13769531 C10.25451477 -0.11453247 10.96166626 -0.09136963 11.69024658 -0.06750488 C14.18017944 0.00526593 16.66885642 0.03813245 19.15966797 0.06738281 C23.93456286 0.13478612 28.69987178 0.30202441 33.47045898 0.51269531 C35.46021702 0.58800912 37.45110766 0.63751876 39.44213867 0.66210938 C55.92536284 0.88855321 55.92536284 0.88855321 60.62817383 5.67480469 C62.19348946 8.75907912 63.32688608 11.63620169 64.32199097 14.92938232 C65.51071991 18.5597221 67.24562 21.93594736 68.89453125 25.375 C69.55001709 26.80425606 70.20170142 28.23526157 70.84960938 29.66796875 C72.17285849 32.58949652 73.50116529 35.50860693 74.83398438 38.42578125 C75.47953059 39.84618883 76.12472609 41.26675586 76.76953125 42.6875 C77.21326836 43.65792236 77.21326836 43.65792236 77.66596985 44.64794922 C79.34678788 48.37238072 80.77651864 52.10162683 82 56 C91.13174831 49.61544992 100.03480426 42.96485266 108.87866211 36.18774414 C115.69942279 30.96883342 122.58352178 25.84389361 129.52026367 20.78027344 C130.60078003 19.98991699 130.60078003 19.98991699 131.703125 19.18359375 C132.41791016 18.6716748 133.13269531 18.15975586 133.86914062 17.63232422 C136.05136368 16.02124273 136.05136368 16.02124273 138.05273438 14.04345703 C142.46457481 9.99249294 145.47855836 8.54525683 151.53125 8.50390625 C154.02284563 8.63551876 156.51273952 8.80275417 159 9 C160.34089835 9.07107714 161.68206558 9.13723479 163.0234375 9.19873047 C166.48450594 9.36352126 169.94098862 9.57173474 173.3984375 9.79956055 C175.52571647 9.93918794 177.65339709 10.07061234 179.78125 10.20117188 C185.57614465 10.56956642 191.27855917 10.95591354 197 12 C196.38328369 16.21009723 194.93463462 19.40588548 192.95703125 23.16015625 C192.6409491 23.76587967 192.32486694 24.37160309 191.99920654 24.99568176 C191.30745573 26.32062197 190.61303691 27.64417181 189.91629028 28.9664917 C187.98690862 32.63023114 186.07939886 36.30531366 184.171875 39.98046875 C183.76131363 40.77080505 183.35075226 41.56114136 182.92774963 42.37542725 C177.21768115 53.39844526 171.70926136 64.52373373 166.18838501 75.6423645 C157.55132666 93.03640502 157.55132666 93.03640502 153.61769104 100.39584351 C152.83399976 101.87402055 152.0628766 103.35891506 151.30308533 104.84951782 C149.26025552 108.83895674 147.16658835 112.7649389 144.8243103 116.5869751 C129.23188893 142.04608704 126.55833027 163.18427383 127.76403809 192.72894287 C127.95243435 197.85823313 128.03125887 202.98929917 128.12109375 208.12109375 C128.31078753 218.08514227 128.6154379 228.04169218 129 238 C99.21590507 238.49726223 69.65732973 237.93056658 39.9375 236.0625 C39.20610683 236.01670303 38.47471367 235.97090607 37.72115707 235.92372131 C24.13780373 235.07037907 10.56015163 234.17269807 -3 233 C-2.97477768 232.35695923 -2.94955536 231.71391846 -2.92356873 231.0513916 C-1.12693806 186.60794208 -1.12693806 186.60794208 -18.84521484 147.14111328 C-21.99925505 142.54334744 -24.54358762 137.68367601 -27.125 132.75 C-28.06293868 131.02935526 -29.00438307 129.31061716 -29.94921875 127.59375 C-33.30909658 121.44765946 -36.62944248 115.28045414 -39.94061279 109.10803223 C-40.5933004 107.8915309 -41.24647979 106.67529328 -41.90020752 105.45935059 C-43.40183812 102.66554199 -44.89079892 99.86764683 -46.34936523 97.05102539 C-47.93050421 94.01258869 -47.93050421 94.01258869 -49.77758789 91.35327148 C-51.38134574 88.82750912 -52.43926207 86.942348 -53 84 C-51.66793961 79.62788788 -49.2152637 76.24677708 -46.5625 72.5625 C-45.13011415 70.43495924 -43.69782358 68.30735433 -42.265625 66.1796875 C-41.54052734 65.13393555 -40.81542969 64.08818359 -40.06835938 63.01074219 C-37.18610965 58.81528614 -34.49842089 54.51003291 -31.8125 50.1875 C-30.84130596 48.64881568 -29.86865668 47.1110489 -28.89453125 45.57421875 C-25.92658798 40.88476794 -22.96307072 36.19253059 -20 31.5 C-19.01302685 29.9374962 -18.02604767 28.37499621 -17.0390625 26.8125 C-14.90782136 23.43815087 -12.77782092 20.06302173 -10.6484375 16.6875 C-10.10058594 15.81931641 -9.55273438 14.95113281 -8.98828125 14.05664062 C-7.93588914 12.38886668 -6.88379189 10.72090662 -5.83203125 9.05273438 C-5.35894531 8.30314453 -4.88585938 7.55355469 -4.3984375 6.78125 C-3.98255371 6.12189453 -3.56666992 5.46253906 -3.13818359 4.78320312 C-2.1122109 3.17580189 -1.05777105 1.58665658 0 0 Z " fill="#00909c" transform="translate(59,7)"/>
<path d="M0 0 C2.51700557 2.27650694 3.96232817 4.53350295 5.49609375 7.55078125 C5.96547363 8.46448486 6.43485352 9.37818848 6.91845703 10.31958008 C7.41974121 11.30724365 7.92102539 12.29490723 8.4375 13.3125 C12.40834609 21.03238742 16.43672979 28.70834187 20.625 36.3125 C25.85161151 45.82206592 30.9357421 55.40341326 36 65 C41.38517087 75.20347435 46.80771623 85.38065502 52.36962891 95.48925781 C55.47245303 101.14841622 58.51204878 106.83871341 61.5234375 112.546875 C62.12191498 113.68086731 62.12191498 113.68086731 62.73248291 114.83776855 C64.72061222 118.60698647 66.70468546 122.37827689 68.68359375 126.15234375 C69.42180856 127.55472248 70.16008712 128.95706765 70.8984375 130.359375 C71.22306976 130.98156921 71.54770203 131.60376343 71.88217163 132.24481201 C72.20384308 132.85463928 72.52551453 133.46446655 72.85693359 134.09277344 C73.18452667 134.72813019 73.51211975 135.36348694 73.84963989 136.01809692 C74.9732638 138.06464876 74.9732638 138.06464876 76.57003784 139.97384644 C82.99573713 148.59053837 81.75479206 158.41930188 81.5859375 168.6640625 C81.57473129 170.66757938 81.56619785 172.67111283 81.56021118 174.6746521 C81.53742505 179.91931447 81.47859066 185.16296205 81.4119873 190.40722656 C81.3503434 195.77004269 81.32314913 201.1330246 81.29296875 206.49609375 C81.22883689 216.99783896 81.12658231 227.49883472 81 238 C59.8659924 236.91914713 38.73926979 235.79778473 17.625 234.375 C15.58204695 234.23934661 13.53907812 234.10393077 11.49609375 233.96875 C6.66387928 233.64852283 1.83187861 233.32525394 -3 233 C-2.97477768 232.35695923 -2.94955536 231.71391846 -2.92356873 231.0513916 C-1.12693806 186.60794208 -1.12693806 186.60794208 -18.84521484 147.14111328 C-21.99925505 142.54334744 -24.54358762 137.68367601 -27.125 132.75 C-28.06293868 131.02935526 -29.00438307 129.31061716 -29.94921875 127.59375 C-33.30909658 121.44765946 -36.62944248 115.28045414 -39.94061279 109.10803223 C-40.5933004 107.8915309 -41.24647979 106.67529328 -41.90020752 105.45935059 C-43.40183812 102.66554199 -44.89079892 99.86764683 -46.34936523 97.05102539 C-47.93050421 94.01258869 -47.93050421 94.01258869 -49.77758789 91.35327148 C-51.38134574 88.82750912 -52.43926207 86.942348 -53 84 C-51.66793961 79.62788788 -49.2152637 76.24677708 -46.5625 72.5625 C-45.13011415 70.43495924 -43.69782358 68.30735433 -42.265625 66.1796875 C-41.54052734 65.13393555 -40.81542969 64.08818359 -40.06835938 63.01074219 C-37.18610965 58.81528614 -34.49842089 54.51003291 -31.8125 50.1875 C-30.84130596 48.64881568 -29.86865668 47.1110489 -28.89453125 45.57421875 C-25.92658798 40.88476794 -22.96307072 36.19253059 -20 31.5 C-19.01302685 29.9374962 -18.02604767 28.37499621 -17.0390625 26.8125 C-14.90782136 23.43815087 -12.77782092 20.06302173 -10.6484375 16.6875 C-10.10058594 15.81931641 -9.55273438 14.95113281 -8.98828125 14.05664062 C-7.93588914 12.38886668 -6.88379189 10.72090662 -5.83203125 9.05273438 C-5.35894531 8.30314453 -4.88585938 7.55355469 -4.3984375 6.78125 C-3.98255371 6.12189453 -3.56666992 5.46253906 -3.13818359 4.78320312 C-2.1122109 3.17580189 -1.05777105 1.58665658 0 0 Z " fill="#0c7a84" transform="translate(59,7)"/>
<path d="M0 0 C0.66 0.33 1.32 0.66 2 1 C1.66379639 1.74757568 1.32759277 2.49515137 0.98120117 3.26538086 C-6.16956629 19.17283418 -13.2745864 35.09848783 -20.27734375 51.07177734 C-22.4120379 55.94066747 -24.54992114 60.80815709 -26.6875 65.67578125 C-31.12602436 75.78340464 -35.56331443 85.89156936 -40 96 C-42.79864284 92.60814056 -44.60570308 88.89181906 -46.43359375 84.92578125 C-46.75280289 84.24251266 -47.07201202 83.55924408 -47.40089417 82.85527039 C-48.4174424 80.67634084 -49.42745778 78.49445174 -50.4375 76.3125 C-51.1122232 74.86504458 -51.78734962 73.41777705 -52.46289062 71.97070312 C-53.75345365 69.20401187 -55.03455084 66.4332498 -56.30810547 63.65869141 C-57.31208004 61.47320805 -58.33892423 59.30949363 -59.39892578 57.14990234 C-59.96135986 55.98322021 -59.96135986 55.98322021 -60.53515625 54.79296875 C-60.84976807 54.16285889 -61.16437988 53.53274902 -61.48852539 52.88354492 C-62.21120372 50.22222593 -61.88404618 48.60221413 -61 46 C-59.26025391 44.18579102 -59.26025391 44.18579102 -56.9765625 42.50390625 C-55.7071582 41.55354492 -55.7071582 41.55354492 -54.41210938 40.58398438 C-53.03249023 39.58334961 -53.03249023 39.58334961 -51.625 38.5625 C-50.67689453 37.85802734 -49.72878906 37.15355469 -48.75195312 36.42773438 C-45.84428957 34.27168538 -42.92358686 32.13438856 -40 30 C-38.37172212 28.80169616 -36.74407519 27.60253431 -35.1171875 26.40234375 C-32.81680341 24.70621803 -30.51555222 23.01139678 -28.21020508 21.32202148 C-18.70595444 14.3483762 -9.35539704 7.17139428 0 0 Z " fill="#0c7a84" transform="translate(204,16)"/>
</svg>